# xmcd
#
# Track frame offsets: 
#        150
#        16403
#        31938
#        46661
#        64258
#        79481
#        96650
#        113942
#        138391
#        165797
#
# Disc length: 2578 seconds
#
# Revision: 0
# Processed by: cddbd v1.5.2PL0 Copyright (c) Steve Scherf et al.
# Submitted via: ExactAudioCopy v1.2
#
DISCID=7e0a100a
DTITLE=Charlie Landsborough - Under Blue Skies, Bonus
DYEAR=2008
DGENRE=Country
TTITLE0=When You're Not A Dream [Live]
TTITLE1=Little Bit Of Heaven [Live]
TTITLE2=Down To Earth [Live]
TTITLE3=Counterfeit Man [Live]
TTITLE4=Who Can Blame Him [Live]
TTITLE5=No Time At All [Live]
TTITLE6=You're Still Around [Live]
TTITLE7=Isle Of Innisfree [Live]
TTITLE8=[Beatles Medley] I Feel Fine, Love Me Do, From Me To You, Let 
TTITLE8=It Be [Live]
TTITLE9=I Will Love You All My Life [Live]
EXTD=
EXTT0=
EXTT1=
EXTT2=
EXTT3=
EXTT4=
EXTT5=
EXTT6=
EXTT7=
EXTT8=
EXTT9=
PLAYORDER=
